<svg width="400" height="400" viewBox="0 0 400 400" fill="none" xmlns="http://www.w3.org/2000/svg">
<g opacity="0.05">
<path fill-rule="evenodd" clip-rule="evenodd" d="M200 423.077C89.3023 423.077 0 333.736 0 222.992V-32H400V222.992C400 333.736 309.767 423.077 200 423.077ZM33.4884 1.50257V222.992C33.4884 315.124 107.907 389.574 200 389.574C292.093 389.574 366.512 315.124 366.512 222.992V1.50257H33.4884Z" fill="#3C444D"/>
<path d="M217.148 -15.2485H183.751V403.534H217.148V-15.2485Z" fill="#3C444D"/>
<path fill-rule="evenodd" clip-rule="evenodd" d="M188.349 123.319L343.154 -31.1058L366.902 -7.41615L212.097 147.009L188.349 123.319Z" fill="#3C444D"/>
<path fill-rule="evenodd" clip-rule="evenodd" d="M187.854 237.088L372.178 53.2179L395.926 76.9075L211.603 260.778L187.854 237.088Z" fill="#3C444D"/>
<path fill-rule="evenodd" clip-rule="evenodd" d="M188.237 347.664L372.561 163.794L396.309 187.484L211.985 371.354L188.237 347.664Z" fill="#3C444D"/>
</g>
</svg>
