<svg width="20" height="23" viewBox="0 0 20 23" fill="none" xmlns="http://www.w3.org/2000/svg">
<path fill-rule="evenodd" clip-rule="evenodd" d="M9.7768 22.7273C4.36545 22.7273 0 18.3479 0 12.9193V0.419922H19.5536V12.9193C19.5536 18.3479 15.1427 22.7273 9.7768 22.7273ZM1.63705 2.06218V12.9193C1.63705 17.4356 5.27492 21.085 9.7768 21.085C14.2787 21.085 17.9165 17.4356 17.9165 12.9193V2.06218H1.63705Z" fill="#FE1A58"/>
<path d="M10.5955 1.24103H8.9585V21.7693H10.5955V1.24103Z" fill="#FE1A58"/>
<path fill-rule="evenodd" clip-rule="evenodd" d="M9.18359 8.03348L16.772 0.463745L17.9361 1.62499L10.3477 9.19472L9.18359 8.03348Z" fill="#FE1A58"/>
<path fill-rule="evenodd" clip-rule="evenodd" d="M9.15918 13.6103L18.1945 4.59721L19.3586 5.75845L10.3233 14.7716L9.15918 13.6103Z" fill="#FE1A58"/>
<path fill-rule="evenodd" clip-rule="evenodd" d="M9.17822 19.0307L18.2136 10.0176L19.3777 11.1788L10.3423 20.1919L9.17822 19.0307Z" fill="#FE1A58"/>
</svg>
