<svg width="159" height="48" viewBox="0 0 159 48" fill="none" xmlns="http://www.w3.org/2000/svg">
<path fill-rule="evenodd" clip-rule="evenodd" d="M14.2234 32.3483C6.57009 32.3483 0.395996 26.1545 0.395996 18.4768V0.798828H28.0508V18.4768C28.0508 26.1545 21.8124 32.3483 14.2234 32.3483ZM2.71128 3.12149V18.4768C2.71128 24.8641 7.85636 30.0256 14.2234 30.0256C20.5904 30.0256 25.7355 24.8641 25.7355 18.4768V3.12149H2.71128Z" fill="#FE1A58"/>
<path d="M15.3812 1.96021H13.0659V30.9934H15.3812V1.96021Z" fill="#FE1A58"/>
<path fill-rule="evenodd" clip-rule="evenodd" d="M13.3843 11.5667L24.1166 0.860726L25.763 2.50308L15.0307 13.209L13.3843 11.5667Z" fill="#FE1A58"/>
<path fill-rule="evenodd" clip-rule="evenodd" d="M13.3501 19.4541L26.1289 6.70679L27.7753 8.34914L14.9965 21.0965L13.3501 19.4541Z" fill="#FE1A58"/>
<path fill-rule="evenodd" clip-rule="evenodd" d="M13.377 27.1201L26.1557 14.3728L27.8021 16.0152L15.0234 28.7625L13.377 27.1201Z" fill="#FE1A58"/>
<path fill-rule="evenodd" clip-rule="evenodd" d="M55.3036 19.0026V15.8398H48.1908V2.12549H44.584V19.0026H55.3036Z" fill="#333333"/>
<path fill-rule="evenodd" clip-rule="evenodd" d="M68.8985 19.0026V6.78125H65.6953V15.0554C65.1404 15.7638 64.1567 16.447 62.9208 16.447C61.5587 16.447 60.6759 15.8904 60.6759 14.1951V6.78125H57.4727V15.4602C57.4727 17.8387 58.7338 19.3063 61.4074 19.3063C63.4 19.3063 64.8629 18.3701 65.6953 17.4591V19.0026H68.8985Z" fill="#333333"/>
<path fill-rule="evenodd" clip-rule="evenodd" d="M83.6793 19.0026V2.12549H80.4508V8.35005C79.4923 7.08489 78.1303 6.47762 76.6926 6.47762C73.5902 6.47762 71.2949 8.90671 71.2949 12.8793C71.2949 16.9784 73.6406 19.3063 76.6926 19.3063C78.1807 19.3063 79.4923 18.6484 80.4508 17.4339V19.0026H83.6793ZM77.7015 16.447C75.8602 16.447 74.5991 15.0048 74.5991 12.8793C74.5991 10.7791 75.8602 9.33687 77.7015 9.33687C78.7608 9.33687 79.9211 9.91884 80.4508 10.7285V15.0554C79.9211 15.8651 78.7608 16.447 77.7015 16.447Z" fill="#333333"/>
<path fill-rule="evenodd" clip-rule="evenodd" d="M86.8569 2.12549H90.0602V19.0026H86.8569V2.12549Z" fill="#333333"/>
<path fill-rule="evenodd" clip-rule="evenodd" d="M98.8883 19.3062C102.924 19.3062 105.345 16.3457 105.345 12.8792C105.345 9.4127 102.924 6.47754 98.8883 6.47754C94.8779 6.47754 92.4565 9.4127 92.4565 12.8792C92.4565 16.3457 94.8779 19.3062 98.8883 19.3062ZM98.8883 16.447C96.8957 16.447 95.7859 14.8023 95.7859 12.8792C95.7859 10.9815 96.8957 9.33679 98.8883 9.33679C100.906 9.33679 102.016 10.9815 102.016 12.8792C102.016 14.8023 100.906 16.447 98.8883 16.447Z" fill="#333333"/>
<path fill-rule="evenodd" clip-rule="evenodd" d="M121.866 19.0026L125.574 6.78125H122.219L119.949 15.0048L117.276 6.78125H114.425L111.752 15.0048L109.482 6.78125H106.152L109.86 19.0026H113.29L115.863 10.6779L118.436 19.0026H121.866Z" fill="#333333"/>
<path fill-rule="evenodd" clip-rule="evenodd" d="M52.3274 42.5006C57.4476 42.5006 59.9194 39.6161 59.9194 35.4411V25.3198H56.2621V35.3398C56.2621 37.693 54.9253 39.3124 52.3274 39.3124C49.7294 39.3124 48.3674 37.693 48.3674 35.3398V25.3198H44.7354V35.4411C44.7354 39.6161 47.2072 42.5006 52.3274 42.5006Z" fill="#333333"/>
<path fill-rule="evenodd" clip-rule="evenodd" d="M74.624 42.1971V33.5688C74.624 31.1903 73.3376 29.6721 70.6388 29.6721C68.6714 29.6721 67.158 30.6336 66.3761 31.5445V29.9758H63.1729V42.1971H66.3761V33.9483C66.931 33.2399 67.8895 32.5314 69.1506 32.5314C70.5127 32.5314 71.3955 33.1133 71.3955 34.8086V42.1971H74.624Z" fill="#333333"/>
<path fill-rule="evenodd" clip-rule="evenodd" d="M79.3658 28.6599C80.4252 28.6599 81.2827 27.7996 81.2827 26.7368C81.2827 25.6741 80.4252 24.8391 79.3658 24.8391C78.3317 24.8391 77.4741 25.6741 77.4741 26.7368C77.4741 27.7996 78.3317 28.6599 79.3658 28.6599ZM80.9801 42.197V29.9756H77.7768V42.197H80.9801Z" fill="#333333"/>
<path fill-rule="evenodd" clip-rule="evenodd" d="M90.7667 42.197L95.6599 29.9756H92.2296L89.0263 38.4774L85.8483 29.9756H82.418L87.3112 42.197H90.7667Z" fill="#333333"/>
<path fill-rule="evenodd" clip-rule="evenodd" d="M102.823 42.5008C104.715 42.5008 106.632 41.9188 107.842 40.8055L106.405 38.68C105.623 39.4391 104.21 39.8693 103.176 39.8693C101.108 39.8693 99.8971 38.6294 99.67 37.1365H108.725V36.3774C108.725 32.4049 106.278 29.6721 102.621 29.6721C98.9386 29.6721 96.3154 32.5314 96.3154 36.0738C96.3154 39.9958 99.1151 42.5008 102.823 42.5008ZM105.648 34.9099H99.6448C99.7709 33.6953 100.629 32.3036 102.621 32.3036C104.74 32.3036 105.547 33.7459 105.648 34.9099Z" fill="#333333"/>
<path fill-rule="evenodd" clip-rule="evenodd" d="M114.249 42.1971V34.1255C114.779 33.3411 116.191 32.7338 117.251 32.7338C117.629 32.7338 117.906 32.7591 118.133 32.8097V29.6721C116.62 29.6721 115.132 30.5577 114.249 31.6205V29.9758H111.046V42.1971H114.249Z" fill="#333333"/>
<path fill-rule="evenodd" clip-rule="evenodd" d="M124.515 42.5008C127.894 42.5008 129.811 40.8561 129.811 38.6041C129.811 33.67 122.572 35.1882 122.572 33.3917C122.572 32.7085 123.329 32.2024 124.489 32.2024C125.977 32.2024 127.365 32.8603 128.096 33.6194L129.382 31.3421C128.172 30.3806 126.532 29.6721 124.489 29.6721C121.261 29.6721 119.495 31.4686 119.495 33.5182C119.495 38.3258 126.709 36.6811 126.709 38.68C126.709 39.4391 126.053 39.9705 124.666 39.9705C123.152 39.9705 121.362 39.1355 120.454 38.2752L119.066 40.603C120.353 41.7923 122.396 42.5008 124.515 42.5008Z" fill="#333333"/>
<path fill-rule="evenodd" clip-rule="evenodd" d="M133.746 28.6599C134.806 28.6599 135.663 27.7996 135.663 26.7368C135.663 25.6741 134.806 24.8391 133.746 24.8391C132.712 24.8391 131.854 25.6741 131.854 26.7368C131.854 27.7996 132.712 28.6599 133.746 28.6599ZM135.36 42.197V29.9756H132.157V42.197H135.36Z" fill="#333333"/>
<path fill-rule="evenodd" clip-rule="evenodd" d="M142.624 42.5008C143.961 42.5008 144.819 42.1465 145.298 41.7164L144.617 39.262C144.44 39.4644 143.986 39.6415 143.507 39.6415C142.801 39.6415 142.397 39.0596 142.397 38.2752V32.7844H144.869V29.9757H142.397V26.6357H139.194V29.9757H137.176V32.7844H139.194V39.1355C139.194 41.3368 140.38 42.5008 142.624 42.5008Z" fill="#333333"/>
<path fill-rule="evenodd" clip-rule="evenodd" d="M146.66 46.9539C147.038 47.0805 147.871 47.1564 148.224 47.1564C150.317 47.1058 151.932 46.4985 152.84 44.1959L158.565 29.9756H155.135L151.932 38.4774L148.754 29.9756H145.323L150.267 42.3488L149.813 43.4115C149.51 44.0694 148.955 44.2971 148.123 44.2971C147.82 44.2971 147.391 44.2212 147.114 44.0947L146.66 46.9539Z" fill="#333333"/>
</svg>
