<svg width="144" height="24" viewBox="0 0 144 24" fill="none" xmlns="http://www.w3.org/2000/svg">
<path fill-rule="evenodd" clip-rule="evenodd" d="M98.8751 10.6027H92.1479C92.1479 11.3023 92.1479 12.7015 92.1436 13.4011H96.0418C95.8925 14.1007 95.3628 15.0802 94.6145 15.5734C94.6138 15.5727 94.6131 15.5776 94.6116 15.5769C93.6167 16.2338 92.3037 16.3829 91.3288 16.187C89.8007 15.8833 88.5913 14.7752 88.1003 13.3675C88.1032 13.3654 88.1053 13.3459 88.1075 13.3445C87.8001 12.4714 87.8001 11.3023 88.1075 10.6027H88.1067C88.5027 9.31683 89.7485 8.14359 91.2788 7.82247C92.5096 7.56152 93.8983 7.84416 94.9197 8.79982C95.0555 8.6669 96.7995 6.96405 96.9303 6.82553C93.4409 3.66541 87.8537 4.77708 85.7631 8.85789H85.7624C85.7624 8.85789 85.7631 8.85789 85.7588 8.86558C84.7246 10.87 84.7675 13.2318 85.766 15.1404C85.7631 15.1425 85.761 15.1438 85.7588 15.1459C86.6637 16.902 88.3105 18.2487 90.2946 18.7615C92.4024 19.3142 95.0848 18.9364 96.8817 17.3112C96.8824 17.3119 96.8831 17.3126 96.8838 17.3133C98.4062 15.9421 99.354 13.6061 98.8751 10.6027Z" fill="#FF227F"/>
<path fill-rule="evenodd" clip-rule="evenodd" d="M60 19H56.9231V13.3967C56.9231 11.8596 56.2715 11.0022 55.1031 11.0022C53.8315 11.0022 53.0769 11.8956 53.0769 13.3967V19H50V8.59243H53.0769V9.76288C53.0769 9.76288 54.0423 8 56.2177 8C58.3938 8 60 9.3818 60 12.2415C60 15.1004 60 19 60 19ZM45.5003 6C44.6715 6 44 5.32819 44 4.4997C44 3.67181 44.6715 3 45.5003 3C46.3285 3 47 3.67181 47 4.4997C47.0006 5.32819 46.3285 6 45.5003 6ZM44 19H47V9H44V19Z" fill="#FF227F"/>
<path fill-rule="evenodd" clip-rule="evenodd" d="M9.032 19C15.0696 19 18.372 13.6132 18.372 8.94228C18.372 8.78894 18.372 8.63646 18.3624 8.48484C19.0048 7.98518 19.5592 7.36492 20 6.65506C19.4016 6.94107 18.7656 7.12887 18.1152 7.21158C18.8 6.76964 19.3128 6.07529 19.5584 5.25603C18.9136 5.66781 18.2088 5.95813 17.4736 6.11406C16.2304 4.6909 14.1512 4.62198 12.8288 5.96071C11.9768 6.82391 11.6144 8.11096 11.8792 9.33856C9.24 9.19555 6.7808 7.85337 5.1136 5.64541C4.2424 7.26068 4.688 9.3265 6.1304 10.3637C5.608 10.3473 5.0968 10.1957 4.64 9.92178V9.96657C4.6408 11.649 5.7424 13.098 7.2736 13.4314C6.7904 13.5736 6.2832 13.5942 5.792 13.4917C6.2216 14.9321 7.4544 15.9185 8.8584 15.9469C7.696 16.9307 6.26 17.4649 4.7816 17.4631C4.5208 17.4623 4.26 17.4459 4 17.4123C5.5016 18.4495 7.248 19 9.032 18.9974" fill="#FF227F"/>
<path fill-rule="evenodd" clip-rule="evenodd" d="M133.457 19V12.25H135.643L136 9.25H133.457V7.789C133.457 7.0165 133.478 6.25 134.63 6.25H135.796V4.105C135.796 4.07275 134.794 4 133.781 4C131.664 4 130.339 5.24275 130.339 7.525V9.25H128V12.25H130.339V19H133.457Z" fill="#FF227F"/>
</svg>
