<svg width="23" height="18" viewBox="0 0 23 18" fill="none" xmlns="http://www.w3.org/2000/svg">
<path d="M22.125 2.15625C21.5625 3.03125 20.8125 3.8125 19.875 4.5V5.0625C19.875 8.34377 18.6953 11.3203 16.3359 13.9922C13.9766 16.6641 10.8438 18 6.9375 18C4.43749 18 2.12501 17.3125 0 15.9375C0.500003 16 0.859374 16.0312 1.07812 16.0312C3.17189 16.0312 5.04687 15.375 6.70312 14.0625C5.73437 14.0312 4.85938 13.7266 4.07812 13.1484C3.29687 12.5703 2.76563 11.8281 2.48438 10.9219C2.85938 10.9844 3.14062 11.0156 3.32812 11.0156C3.64063 11.0156 4.04687 10.9531 4.54688 10.8281C3.51562 10.6094 2.64844 10.0859 1.94531 9.25781C1.24218 8.42968 0.890625 7.46876 0.890625 6.375V6.32812C1.57813 6.70313 2.26562 6.89062 2.95312 6.89062C1.60937 6.01562 0.9375 4.75001 0.9375 3.09375C0.9375 2.3125 1.14062 1.5625 1.54688 0.84375C3.95314 3.81251 7.06248 5.39062 10.875 5.57812C10.8125 5.35937 10.7812 5.01563 10.7812 4.54688C10.7812 3.26562 11.2187 2.1875 12.0938 1.3125C12.9688 0.437496 14.0469 0 15.3281 0C16.6094 0 17.7031 0.48437 18.6094 1.45312C19.5469 1.29687 20.5156 0.921878 21.5156 0.328125C21.2031 1.42188 20.5313 2.26562 19.5 2.85938C20.4688 2.76562 21.3437 2.53125 22.125 2.15625Z" fill="#31B5DF"/>
<mask id="mask0" mask-type="alpha" maskUnits="userSpaceOnUse" x="0" y="0" width="23" height="18">
<path d="M22.125 2.15625C21.5625 3.03125 20.8125 3.8125 19.875 4.5V5.0625C19.875 8.34377 18.6953 11.3203 16.3359 13.9922C13.9766 16.6641 10.8438 18 6.9375 18C4.43749 18 2.12501 17.3125 0 15.9375C0.500003 16 0.859374 16.0312 1.07812 16.0312C3.17189 16.0312 5.04687 15.375 6.70312 14.0625C5.73437 14.0312 4.85938 13.7266 4.07812 13.1484C3.29687 12.5703 2.76563 11.8281 2.48438 10.9219C2.85938 10.9844 3.14062 11.0156 3.32812 11.0156C3.64063 11.0156 4.04687 10.9531 4.54688 10.8281C3.51562 10.6094 2.64844 10.0859 1.94531 9.25781C1.24218 8.42968 0.890625 7.46876 0.890625 6.375V6.32812C1.57813 6.70313 2.26562 6.89062 2.95312 6.89062C1.60937 6.01562 0.9375 4.75001 0.9375 3.09375C0.9375 2.3125 1.14062 1.5625 1.54688 0.84375C3.95314 3.81251 7.06248 5.39062 10.875 5.57812C10.8125 5.35937 10.7812 5.01563 10.7812 4.54688C10.7812 3.26562 11.2187 2.1875 12.0938 1.3125C12.9688 0.437496 14.0469 0 15.3281 0C16.6094 0 17.7031 0.48437 18.6094 1.45312C19.5469 1.29687 20.5156 0.921878 21.5156 0.328125C21.2031 1.42188 20.5313 2.26562 19.5 2.85938C20.4688 2.76562 21.3437 2.53125 22.125 2.15625Z" fill="white"/>
</mask>
<g mask="url(#mask0)">
<rect x="-1" y="-3" width="24" height="24" fill="#31B5DF"/>
</g>
</svg>
